<?xml version="1.0" encoding="UTF-8" standalone="no"?>
<!-- Created with Inkscape (http://www.inkscape.org/) -->

<svg
   xmlns:dc="http://purl.org/dc/elements/1.1/"
   xmlns:cc="http://creativecommons.org/ns#"
   xmlns:rdf="http://www.w3.org/1999/02/22-rdf-syntax-ns#"
   xmlns:svg="http://www.w3.org/2000/svg"
   xmlns="http://www.w3.org/2000/svg"
   xmlns:sodipodi="http://sodipodi.sourceforge.net/DTD/sodipodi-0.dtd"
   xmlns:inkscape="http://www.inkscape.org/namespaces/inkscape"
   id="svg2"
   version="1.1"
   inkscape:version="0.91 r13725"
   xml:space="preserve"
   width="607.4856"
   height="229.49001"
   viewBox="0 0 607.4856 229.49001"
   sodipodi:docname="BSE.svg"><metadata
     id="metadata8"><rdf:RDF><cc:Work
         rdf:about=""><dc:format>image/svg+xml</dc:format><dc:type
           rdf:resource="http://purl.org/dc/dcmitype/StillImage" /><dc:title></dc:title></cc:Work></rdf:RDF></metadata><defs
     id="defs6"><clipPath
       clipPathUnits="userSpaceOnUse"
       id="clipPath16"><path
         d="M 0,612 792,612 792,0 0,0 0,612 Z"
         id="path18"
         inkscape:connector-curvature="0" /></clipPath></defs><sodipodi:namedview
     pagecolor="#ffffff"
     bordercolor="#666666"
     borderopacity="1"
     objecttolerance="10"
     gridtolerance="10"
     guidetolerance="10"
     inkscape:pageopacity="0"
     inkscape:pageshadow="2"
     inkscape:window-width="1280"
     inkscape:window-height="657"
     id="namedview4"
     showgrid="false"
     fit-margin-top="0"
     fit-margin-left="0"
     fit-margin-right="0"
     fit-margin-bottom="0"
     inkscape:zoom="0.30849673"
     inkscape:cx="288.96938"
     inkscape:cy="65.789"
     inkscape:window-x="-8"
     inkscape:window-y="-8"
     inkscape:window-maximized="1"
     inkscape:current-layer="g10" /><g
     id="g10"
     inkscape:groupmode="layer"
     inkscape:label="file_3fdd5555c1"
     transform="matrix(1.25,0,0,-1.25,-206.03062,546.201)"><g
       id="g12"><g
         id="g14"
         clip-path="url(#clipPath16)"><g
           id="g20"
           transform="translate(351.7412,399.0293)"><path
             d="m 0,0 c 9.031,21.88 30.576,37.278 55.719,37.278 25.141,0 46.685,-15.398 55.718,-37.278 9.032,21.88 30.577,37.278 55.719,37.278 33.277,0 60.253,-26.975 60.253,-60.253 0,-33.277 -26.976,-60.254 -60.253,-60.254 -25.142,0 -46.687,15.399 -55.719,37.279 C 102.404,-67.83 80.86,-83.229 55.719,-83.229 30.576,-83.229 9.031,-67.83 0,-45.95 c -9.031,-21.88 -30.576,-37.279 -55.719,-37.279 -33.277,0 -60.253,26.977 -60.253,60.254 0,33.278 26.976,60.253 60.253,60.253 C -30.576,37.278 -9.031,21.88 0,0"
             style="fill:#1b65b9;fill-opacity:1;fill-rule:nonzero;stroke:none"
             id="path22"
             inkscape:connector-curvature="0" /></g><g
           id="g24"
           transform="translate(351.7412,399.0293)"><path
             d="m 0,0 c 9.031,21.88 30.576,37.278 55.719,37.278 25.141,0 46.685,-15.398 55.718,-37.278 9.032,21.88 30.577,37.278 55.719,37.278 33.277,0 60.253,-26.975 60.253,-60.253 0,-33.277 -26.976,-60.254 -60.253,-60.254 -25.142,0 -46.687,15.399 -55.719,37.279 C 102.404,-67.83 80.86,-83.229 55.719,-83.229 30.576,-83.229 9.031,-67.83 0,-45.95 c -9.031,-21.88 -30.576,-37.279 -55.719,-37.279 -33.277,0 -60.253,26.977 -60.253,60.254 0,33.278 26.976,60.253 60.253,60.253 C -30.576,37.278 -9.031,21.88 0,0 Z"
             style="fill:none;stroke:#1b65b9;stroke-width:1.30700004;stroke-linecap:butt;stroke-linejoin:miter;stroke-miterlimit:3.86400008;stroke-dasharray:none;stroke-opacity:1"
             id="path26"
             inkscape:connector-curvature="0" /></g><g
           id="g28"
           transform="translate(290.9922,369.4619)"><path
             d="m 0,0 2.509,0 c 4.087,0 10.59,0.093 10.59,-5.76 0,-5.76 -6.039,-5.852 -10.219,-5.852 L 0,-11.612 0,0 Z m 0,14.771 0,10.032 1.765,0 c 3.716,0 8.454,0.372 8.454,-4.83 0,-4.831 -4.181,-5.202 -7.897,-5.202 l -2.322,0 z m -23.595,-43.105 34.65,0 c 12.262,0 25.639,4.924 25.639,19.323 0,8.361 -4.831,13.934 -12.448,16.628 l 0,0.558 c 6.131,1.95 9.196,7.989 9.196,14.12 0,16.164 -13.84,19.415 -27.404,19.415 l -29.633,0 0,-70.044 z"
             style="fill:#ffffff;fill-opacity:1;fill-rule:evenodd;stroke:none"
             id="path30"
             inkscape:connector-curvature="0" /></g><g
           id="g32"
           transform="translate(379.1973,346.4238)"><path
             d="m 0,0 c 7.896,-3.994 18.115,-6.41 26.94,-6.41 15.142,0 30.377,8.267 30.377,24.988 0,11.892 -7.802,17.651 -18.58,20.067 l -5.758,1.3 c -1.951,0.464 -5.111,0.836 -5.111,3.437 0,2.88 3.252,3.716 5.482,3.716 5.48,0 10.404,-2.323 14.77,-5.295 l 6.874,17.928 c -6.874,4.181 -14.213,6.132 -22.202,6.132 -15.234,0 -30.377,-9.29 -30.377,-25.918 0,-10.962 8.361,-16.814 18.301,-18.58 l 5.109,-0.928 c 2.322,-0.464 5.667,-0.744 5.667,-3.902 0,-3.158 -3.995,-4.181 -6.503,-4.181 -5.852,0 -11.333,2.88 -15.885,6.411 L 7.804,19.786 0,0 Z"
             style="fill:#ffffff;fill-opacity:1;fill-rule:evenodd;stroke:none"
             id="path34"
             inkscape:connector-curvature="0" /></g><g
           id="g36"
           transform="translate(494.6104,341.1279)"><path
             d="m 0,0 47.842,0 0,19.138 -22.202,0 0,6.873 19.601,0 0,18.208 -19.601,0 0,6.689 21.46,0 0,19.136 -47.1,0 L 0,0 Z"
             style="fill:#ffffff;fill-opacity:1;fill-rule:evenodd;stroke:none"
             id="path38"
             inkscape:connector-curvature="0" /></g><g
           id="g40"
           transform="translate(171.5625,283.4365)"><path
             d="m 0,0 0.87,0 c 2.842,0 4.859,-0.916 4.859,-4.445 0,-3.576 -1.604,-4.538 -4.905,-4.538 L 0,-8.983 0,0 Z m -6.738,-29.149 10.588,0 c 6.279,0 11.046,3.023 11.046,9.807 0,3.805 -1.834,7.929 -5.913,8.663 2.155,1.375 3.025,4.217 3.025,6.692 0,6.875 -3.942,9.396 -10.359,9.396 l -8.387,0 0,-34.558 z M 0,-14.116 l 1.1,0 c 3.391,0 7.058,-0.184 7.058,-4.676 0,-4.491 -3.117,-4.949 -6.738,-4.949 l -1.42,0 0,9.625 z"
             style="fill:#100f0d;fill-opacity:1;fill-rule:evenodd;stroke:none"
             id="path42"
             inkscape:connector-curvature="0" /></g><g
           id="g44"
           transform="translate(211.3857,267.0742)"><path
             d="m 0,0 -8.204,0 3.805,12.559 0.091,0 L 0,0 Z m 1.88,-5.5 2.658,-7.287 7.196,0 -13.109,35.475 -5.225,0 -13.475,-35.475 7.104,0 2.842,7.287 12.009,0 z"
             style="fill:#100f0d;fill-opacity:1;fill-rule:evenodd;stroke:none"
             id="path46"
             inkscape:connector-curvature="0" /></g><g
           id="g48"
           transform="translate(229.2119,254.2871)"><path
             d="m 0,0 6.737,0 0,23.466 0.092,0 18.196,-24.154 4.859,0 0,35.247 -6.738,0 0,-23.239 -0.091,0 L 4.858,35.475 0,35.475 0,0 Z"
             style="fill:#100f0d;fill-opacity:1;fill-rule:evenodd;stroke:none"
             id="path50"
             inkscape:connector-curvature="0" /></g><g
           id="g52"
           transform="translate(291.1289,287.7451)"><path
             d="m 0,0 c -2.337,1.283 -4.995,2.017 -7.699,2.017 -10.13,0 -17.051,-8.663 -17.051,-18.471 0,-9.533 7.196,-17.922 16.913,-17.922 2.796,0 5.316,0.871 7.837,2.063 l 0,8.021 c -1.878,-2.154 -4.767,-3.667 -7.654,-3.667 -6.279,0 -10.129,5.821 -10.129,11.642 0,5.959 3.713,11.917 10.175,11.917 2.887,0 5.73,-1.375 7.608,-3.667 L 0,0 Z"
             style="fill:#100f0d;fill-opacity:1;fill-rule:evenodd;stroke:none"
             id="path54"
             inkscape:connector-curvature="0" /></g><g
           id="g56"
           transform="translate(315.042,283.1162)"><path
             d="m 0,0 c 5.912,0 10.129,-5.638 10.129,-11.229 0,-5.226 -4.4,-11.872 -10.129,-11.872 -5.729,0 -10.129,6.646 -10.129,11.872 C -10.129,-5.638 -5.912,0 0,0 m 0,-29.747 c 10.083,0 17.096,8.342 17.096,18.242 0,9.671 -7.013,18.151 -17.096,18.151 -10.083,0 -17.096,-8.48 -17.096,-18.151 0,-9.9 7.013,-18.242 17.096,-18.242"
             style="fill:#100f0d;fill-opacity:1;fill-rule:evenodd;stroke:none"
             id="path58"
             inkscape:connector-curvature="0" /></g><g
           id="g60"
           transform="translate(363.4863,282.9785)"><path
             d="m 0,0 1.101,0 c 7.653,0 11.503,-3.896 11.503,-11.413 0,-6.829 -3.208,-11.412 -11.503,-11.412 L 0,-22.825 0,0 Z m -6.737,-28.691 9.579,0 c 9.854,0 16.728,7.515 16.728,17.232 0,9.855 -6.691,17.326 -16.682,17.326 l -9.625,0 0,-34.558 z"
             style="fill:#100f0d;fill-opacity:1;fill-rule:evenodd;stroke:none"
             id="path62"
             inkscape:connector-curvature="0" /></g><g
           id="g64"
           transform="translate(408.2646,282.9785)"><path
             d="m 0,0 0,5.867 -17.875,0 0,-34.558 17.875,0 0,5.866 -11.138,0 0,9.349 10.725,0 0,5.867 -10.725,0 0,7.609 L 0,0 Z"
             style="fill:#100f0d;fill-opacity:1;fill-rule:evenodd;stroke:none"
             id="path66"
             inkscape:connector-curvature="0" /></g><g
           id="g68"
           transform="translate(453.4893,285.9111)"><path
             d="m 0,0 c -2.107,2.338 -6.371,3.851 -9.441,3.851 -5.821,0 -10.084,-4.629 -10.084,-10.359 0,-5.362 3.254,-7.608 7.701,-9.442 2.704,-1.054 6.004,-2.062 6.004,-5.637 0,-2.658 -1.697,-4.996 -4.446,-4.996 -2.888,0 -5.317,2.383 -6.234,5.042 l -4.354,-4.263 c 2.383,-3.988 5.867,-6.738 10.633,-6.738 7.059,0 11.367,4.905 11.367,11.826 0,11.596 -13.705,9.166 -13.705,14.987 0,2.246 2.063,3.896 4.217,3.896 2.246,0 3.897,-1.1 5.18,-2.842 L 0,0 Z"
             style="fill:#100f0d;fill-opacity:1;fill-rule:evenodd;stroke:none"
             id="path70"
             inkscape:connector-curvature="0" /></g><g
           id="g72"
           transform="translate(480.0674,282.9785)"><path
             d="m 0,0 0,5.867 -17.875,0 0,-34.558 17.875,0 0,5.866 -11.138,0 0,9.349 10.726,0 0,5.867 -10.726,0 0,7.609 L 0,0 Z"
             style="fill:#100f0d;fill-opacity:1;fill-rule:evenodd;stroke:none"
             id="path74"
             inkscape:connector-curvature="0" /></g><g
           id="g76"
           transform="translate(504.2129,272.666)"><path
             d="m 0,0 0,-5.5 7.333,0 c -0.138,-4.172 -3.666,-7.838 -7.883,-7.838 -6.509,0 -9.763,6.371 -9.763,12.1 0,5.73 3.209,12.376 9.717,12.376 3.575,0 6.508,-2.384 7.883,-5.501 l 5.958,3.209 c -2.658,5.27 -7.791,8.25 -13.658,8.25 -10.313,0 -16.867,-8.48 -16.867,-18.334 0,-9.533 6.371,-18.059 16.455,-18.059 10.724,0 15.721,8.664 15.721,18.426 L 14.896,0 0,0 Z"
             style="fill:#100f0d;fill-opacity:1;fill-rule:evenodd;stroke:none"
             id="path78"
             inkscape:connector-curvature="0" /></g><g
           id="g80"
           transform="translate(526.292,268.1738)"><path
             d="m 0,0 c 0,-8.434 3.575,-14.805 12.834,-14.805 9.258,0 12.833,6.371 12.833,14.805 l 0,20.672 -6.737,0 0,-19.343 c 0,-4.263 -0.367,-10.267 -6.096,-10.267 -5.73,0 -6.096,6.004 -6.096,10.267 l 0,19.343 L 0,20.672 0,0 Z"
             style="fill:#100f0d;fill-opacity:1;fill-rule:evenodd;stroke:none"
             id="path82"
             inkscape:connector-curvature="0" /></g><g
           id="g84"
           transform="translate(567.4961,283.3447)"><path
             d="m 0,0 0.917,0 c 3.574,0 6.278,-0.824 6.278,-5.087 0,-4.217 -2.612,-5.317 -6.324,-5.317 L 0,-10.404 0,0 Z m 6.875,-14.483 c 4.629,0.779 7.058,5.179 7.058,9.58 0,7.379 -4.72,10.404 -11.549,10.404 l -9.121,0 0,-34.559 6.737,0 0,13.933 0.091,0 8.388,-13.933 8.159,0 -9.763,14.575 z"
             style="fill:#100f0d;fill-opacity:1;fill-rule:evenodd;stroke:none"
             id="path86"
             inkscape:connector-curvature="0" /></g><g
           id="g88"
           transform="translate(605.8027,283.1162)"><path
             d="m 0,0 c 5.912,0 10.129,-5.638 10.129,-11.229 0,-5.226 -4.4,-11.872 -10.129,-11.872 -5.729,0 -10.13,6.646 -10.13,11.872 C -10.13,-5.638 -5.913,0 0,0 m 0,-29.747 c 10.083,0 17.096,8.342 17.096,18.242 0,9.671 -7.013,18.151 -17.096,18.151 -10.084,0 -17.097,-8.48 -17.097,-18.151 0,-9.9 7.013,-18.242 17.097,-18.242"
             style="fill:#100f0d;fill-opacity:1;fill-rule:evenodd;stroke:none"
             id="path90"
             inkscape:connector-curvature="0" /></g><g
           id="g92"
           transform="translate(649.667,285.9111)"><path
             d="m 0,0 c -2.109,2.338 -6.371,3.851 -9.442,3.851 -5.822,0 -10.083,-4.629 -10.083,-10.359 0,-5.362 3.254,-7.608 7.699,-9.442 2.705,-1.054 6.005,-2.062 6.005,-5.637 0,-2.658 -1.697,-4.996 -4.447,-4.996 -2.887,0 -5.316,2.383 -6.233,5.042 l -4.354,-4.263 c 2.382,-3.988 5.867,-6.738 10.633,-6.738 7.059,0 11.368,4.905 11.368,11.826 0,11.596 -13.705,9.166 -13.705,14.987 0,2.246 2.062,3.896 4.217,3.896 2.245,0 3.896,-1.1 5.179,-2.842 L 0,0 Z"
             style="fill:#100f0d;fill-opacity:1;fill-rule:evenodd;stroke:none"
             id="path94"
             inkscape:connector-curvature="0" /></g></g></g></g></svg>