<?xml version="1.0" encoding="utf-8"?>
<!-- Generator: Adobe Illustrator 19.0.0, SVG Export Plug-In . SVG Version: 6.00 Build 0)  -->
<svg version="1.1" id="layer" xmlns="http://www.w3.org/2000/svg" xmlns:xlink="http://www.w3.org/1999/xlink" x="0px" y="0px"
	 viewBox="-153 -46 652 652" style="enable-background:new -153 -46 652 652;" xml:space="preserve">
<style type="text/css">
	.st0{fill:#4EC3E0;}
	.st1{fill:#0033A0;}
</style>
<path class="st0" d="M485.4,279.1c0.3,0,0.5,0.3,0.5,1c-3,4.1-8.4,8.9-14.9,13.7c-6.6,4.8-14.4,9.4-22.5,13.2
	c-8.6,4.1-16,7.6-24.1,9.7c-8.9,2.3-16.7,3-23,2.5c-5.1-0.5-9.4-2-12.7-4.8c-0.3,0-0.3-0.5-0.3-0.8c0-0.5,0.5-0.8,0.8-0.8
	c20-3.3,38.2-8.4,55.2-14.2C461.1,293.1,475.1,286.2,485.4,279.1 M483.7,269.5c-10.9,6.6-32.9,16-52.2,21.6
	c-23,6.6-41.3,9.9-53.7,8.1c-10.9-1.5-16.2-6.6-18-8.4c-0.3-0.3-0.5-0.5-0.5-0.8c0-0.5,0.3-0.8,0.8-0.8l4.1-0.3
	c9.1-0.8,25.6-1,44.8-4.1c22.3-3.3,57.7-9.9,73.9-16.3C483.7,268.7,483.9,269,483.7,269.5 M481.9,298.2c0.3,0,0.5,0.3,0.5,0.8
	c-4.1,9.7-8.6,17-17.5,21.3c-15.7,7.9-23.8,3.6-24.8,3c-0.3-0.3-0.5-0.5-0.5-0.8c0-0.3,0.3-0.8,0.8-0.8c6.8-2,27.3-9.9,41.3-23.6
	C481.6,298.2,481.6,297.9,481.9,298.2 M584.7,149.6c0.3,0.3,0.5,0.3,0.5,0.5c0,0.3-0.3,0.5-0.8,0.5c-4.6-1.3-14.7-4.1-27.1-7.4
	c-28.6-7.9-137.2-36.3-139-36.8l-0.5-0.3c-6.6-2-11.9-5.3-16-9.7c-1.3-1.3-2.3-2.5-3.3-4.3c-3.5-5.6-4.6-13.7-4.8-15
	c0-0.3,0-0.5,0.3-0.8s0.5-0.3,1-0.3l17.7,6.9C454.8,99.3,566.5,142.2,584.7,149.6 M566.5,132.6c0.3,0.8-0.3,1-0.8,0.8
	c-6.3-3.3-20.8-9.9-35.2-17.3c-12.2-6.1-96-45.2-101.8-48L418.6,63c-1.5-0.8-2.8-1.5-4.1-2.3c-4.1-2.3-6.1-4.1-8.1-6.9
	c-1.8-2.3-3-5.1-4.3-7.6c-2.3-6.1-2.3-14-2.3-15.2c0-0.3,0-0.5,0.5-0.8c0.3-0.3,0.5-0.3,1,0l10.4,6.3l5.6,3.6L448,58.7
	C491,84.8,551,122.7,566.5,132.6 M597.3,161.3c0.3,0,0.5,0.3,0.5,0.5c0,0.3-0.3,0.5-0.8,0.5c-16.5-1.3-164.8-10.9-164.8-10.9
	c-1.3-0.3-2.5-0.3-3.8-0.8c-11.9-3.8-18.7-12.7-21.5-21.8c0-0.3-0.3-0.8,0-1c0.3-0.3,0.5-0.5,1-0.5
	C408,127.5,582.9,158.5,597.3,161.3 M590,171.2c0.3,0,0.5,0.3,0.5,0.8c0,0.3-0.3,0.5-0.5,0.5c-6.1,1-118.7,16.8-119.5,17
	c-0.8,0-1.3,0.3-2,0.3c-0.5,0-1.3,0-2,0c-5.3-0.5-10.6-3-15.2-8.1c-2.3-2.5-4.6-6.6-5.1-8.1c-0.3-0.3-0.3-0.5,0-0.8s0.5-0.5,0.8-0.5
	c0,0,37.7-0.3,61.8-0.3c17.7,0,36.7,0,52.2-0.3C574.1,171.4,584.9,171.4,590,171.2 M581.6,182.9c0.3,0,0.8,0,0.8,0.3
	c0,0.3,0.5,0.5-0.3,0.8c-3.5,2.5-84.6,36.3-85.3,36.6c-4.3,1.5-9.4,2.3-12.9-3.8c-1.5-2.5-2.8-4.6-3.5-5.6c-0.3-0.3-1.3-1.3,1.3-2
	c0,0,22.8-6.1,43-11.4C548,191.7,574.6,184.9,581.6,182.9 M545.9,239.2c0.3,0,0.5,0.3,0.5,1c-7.8,9.1-36.7,41.1-49.6,55.1
	c-1.3,1.3-2,0.8-1.5-0.8c0,0,2.5-6.3,3.5-11.2c0.8-3,1.3-5.3,3-6.6c17-14.5,33.2-28.7,43.8-37.6H545.9z M572.5,198.6
	c0.3,0,0.5,0.3,0.3,1c-7.8,6.6-44.1,37.1-63.5,53.3l-0.8,0.5c-5.6,4.3-9.4,5.3-10.1-4.1c-0.3-2.3-0.5-4.1-0.5-4.1
	c-0.3-2,0.3-2,1-2.3c6.3-4.1,18.5-10.9,28.1-16.8C544.7,215.9,564.7,203.4,572.5,198.6"/>
<path class="st1" d="M-163.5,171.9l-35.7-9.9c-9.9-2.8-18.7-7.1-18.7-19c0-12.4,7.6-18.5,23.3-18.5h31.6c13.9,0,30.6-4.6,30.6-27.7
	h-59.7c-36.7,0-57.7,18.5-57.7,45.2c0,24.9,15.7,38.9,43.8,46.2l31.1,8.1c12.9,3.6,17.5,11.4,17.5,19.8c0,12.4-7.8,20.1-27.1,20.3
	l-59.7,0.8v27.2h60.5c36.7,0,57.7-19.8,57.7-46C-125.7,192.3-136.1,179.3-163.5,171.9z M129,96.8c-36.2,0-61,20.8-61,64v103.4h29.1
	V159.7c0-22.1,11.9-35.6,34.4-35.6h8.6c25.6,0,29.6-13.2,29.6-27.7H129V96.8z M-0.7,96.8v116.1c0,17-13.9,25.4-32.4,25.4
	c-19.5,0-32.2-8.4-32.2-25.4l-0.3-86.9c0-24.9-15.4-29.2-29.1-29.2v123.4c0,31,27.8,46.5,60.5,46.5c31.6,0,62.5-15.2,62.5-46.5V130
	C28.5,105.4,19.3,96.8-0.7,96.8z M253.5,96.8L253.5,96.8h-7.3c-38.7,0-75.2,28.7-76.7,84.6c-1.5,50.8,24.8,86.3,69.4,86.3
	c36.7,0,49.4-25.7,49.4-25.7c2,17,11.4,22.3,29.9,22.3V120.6l0,0V96.8H253.5z M286.7,195.6c0,23.1-13.2,45.2-42,45.2
	c-25.8,0-44.1-17.3-43-59.2c1.3-40.1,20.3-57.7,45.8-57.7c2,0,3.8,0,5.6-0.3l0,0h33.7V195.6z M-240.7,439.9
	c-3.3-1.3-5.8-3.3-7.6-5.8c-1.8-2.5-2.5-5.6-2.5-9.1v-1.8c0-0.3,0-0.5,0.3-0.8s0.5-0.3,0.8-0.3h9.4c0.3,0,0.5,0,0.8,0.3
	s0.3,0.5,0.3,0.8v1.3c0,2.3,1,4.1,3,5.6c2,1.5,4.8,2.3,8.1,2.3c2.8,0,5.1-0.5,6.3-1.8c1.5-1.3,2-2.8,2-4.6c0-1.3-0.5-2.3-1.3-3.3
	c-0.8-1-2-1.8-3.5-2.3c-1.5-0.8-3.8-1.5-7.1-2.8c-3.5-1.3-6.8-2.5-9.1-3.8c-2.5-1.3-4.6-3-6.3-5.3c-1.8-2.3-2.5-5.1-2.5-8.4
	c0-3.3,0.8-6.1,2.5-8.6c1.8-2.5,4.1-4.3,7.1-5.6c3-1.3,6.3-2,10.4-2c4.1,0,7.8,0.8,11.1,2.3c3.3,1.5,5.8,3.6,7.6,6.1
	c1.8,2.5,2.8,5.6,2.8,9.1v1.3c0,0.3,0,0.5-0.3,0.8s-0.5,0.3-0.8,0.3h-9.4c-0.3,0-0.5,0-0.8-0.3s-0.3-0.5-0.3-0.8v-0.8
	c0-2.3-1-4.3-2.8-5.8c-1.8-1.5-4.6-2.3-7.6-2.3c-2.5,0-4.6,0.5-6.1,1.5s-2.3,2.5-2.3,4.6c0,1.3,0.5,2.5,1.3,3.6s2,1.8,3.8,2.5
	c1.8,0.8,4.3,1.8,7.6,3c3.8,1.5,6.8,2.5,9.1,3.8c2.3,1,4.3,2.8,5.8,4.8c1.8,2,2.5,4.8,2.5,8.4c0,5.1-1.8,9.1-5.6,12.2
	c-3.8,3-8.9,4.6-15.2,4.6C-233.6,441.9-237.4,441.1-240.7,439.9z M-161.2,393.7c-0.3,0.3-0.5,0.3-0.8,0.3h-26.6
	c-0.3,0-0.5,0.3-0.5,0.5v12.7c0,0.3,0.3,0.5,0.5,0.5h17.5c0.3,0,0.5,0,0.8,0.3s0.3,0.5,0.3,0.8v7.9c0,0.3,0,0.5-0.3,0.8
	s-0.5,0.3-0.8,0.3h-17.5c-0.3,0-0.5,0.3-0.5,0.5v13.2c0,0.3,0.3,0.5,0.5,0.5h26.6c0.3,0,0.5,0,0.8,0.3s0.3,0.5,0.3,0.8v7.9
	c0,0.3,0,0.5-0.3,0.8s-0.5,0.3-0.8,0.3h-37.7c-0.3,0-0.5,0-0.8-0.3s-0.3-0.5-0.3-0.8v-55.1c0-0.3,0-0.5,0.3-0.8s0.5-0.3,0.8-0.3
	h37.7c0.3,0,0.5,0,0.8,0.3s0.3,0.5,0.3,0.8v7.9C-160.9,393.4-160.9,393.7-161.2,393.7z M-144,439.4c-3.3-1.8-5.6-4.1-7.3-7.1
	c-1.8-3-2.5-6.6-2.5-10.4v-18.3c0-4.1,0.8-7.4,2.5-10.4c1.8-3,4.3-5.3,7.3-7.1c3.3-1.8,6.8-2.5,11.1-2.5c4.1,0,7.8,0.8,10.9,2.5
	c3.3,1.5,5.6,3.8,7.3,6.6s2.5,5.8,2.5,9.4v0.5c0,0.3,0,0.5-0.3,0.8c-0.3,0.3-0.5,0.3-0.8,0.3h-9.6c-0.3,0-0.5,0-0.8-0.3
	c-0.3-0.3-0.3-0.5-0.3-0.8v-0.3c0-2.5-0.8-4.6-2.5-6.3c-1.8-1.8-4.1-2.5-6.8-2.5c-3,0-5.3,1-7.1,2.8c-1.8,1.8-2.5,4.3-2.5,7.1v19
	c0,3,1,5.3,2.8,7.1c2,1.8,4.3,2.8,7.3,2.8c2.8,0,5.1-0.8,6.8-2.3c1.8-1.5,2.5-3.6,2.5-6.3v-3.6c0-0.3-0.3-0.5-0.5-0.5h-9.1
	c-0.3,0-0.5,0-0.8-0.3c-0.3-0.3-0.3-0.5-0.3-0.8v-7.6c0-0.3,0-0.5,0.3-0.8c0.3-0.3,0.5-0.3,0.8-0.3h19.7c0.3,0,0.5,0,0.8,0.3
	c0.3,0.3,0.3,0.5,0.3,0.8v10.7c0,4.1-0.8,7.6-2.5,10.7s-4.3,5.3-7.3,6.9c-3.3,1.5-6.8,2.3-11.1,2.3
	C-137.1,441.9-140.7,441.1-144,439.4z M-93.3,439.6c-3.3-1.5-5.6-3.8-7.3-6.9c-1.8-3-2.5-6.3-2.5-10.2v-37.3c0-0.3,0-0.5,0.3-0.8
	c0.3-0.3,0.5-0.3,0.8-0.3h9.6c0.3,0,0.5,0,0.8,0.3c0.3,0.3,0.3,0.5,0.3,0.8v37.3c0,2.8,0.8,5.3,2.5,6.9c1.8,1.8,4.1,2.5,6.8,2.5
	c2.8,0,5.3-0.8,6.8-2.5c1.8-1.8,2.5-4.1,2.5-6.9v-37.3c0-0.3,0-0.5,0.3-0.8c0.3-0.3,0.5-0.3,0.8-0.3h9.6c0.3,0,0.5,0,0.8,0.3
	c0.3,0.3,0.3,0.5,0.3,0.8v37.3c0,3.8-0.8,7.4-2.5,10.2c-1.8,3-4.3,5.3-7.3,6.9c-3.3,1.5-6.8,2.5-11.1,2.5
	C-86.5,441.9-90.3,441.1-93.3,439.6z M-21.7,440.6L-31.8,418c0-0.3-0.3-0.3-0.5-0.3h-7.6c-0.3,0-0.5,0.3-0.5,0.5v22.3
	c0,0.3,0,0.5-0.3,0.8c-0.3,0.3-0.5,0.3-0.8,0.3H-51c-0.3,0-0.5,0-0.8-0.3c-0.3-0.3-0.3-0.5-0.3-0.8v-55.1c0-0.3,0-0.5,0.3-0.8
	c0.3-0.3,0.5-0.3,0.8-0.3h23.3c3.5,0,6.6,0.8,9.1,2c2.5,1.5,4.6,3.6,6.1,6.1c1.5,2.5,2.3,5.6,2.3,9.1c0,3.8-1,6.9-2.8,9.4
	c-1.8,2.5-4.3,4.6-7.8,5.6c-0.3,0-0.3,0.3-0.3,0.5l11.1,23.1c0,0.3,0.3,0.5,0.3,0.5c0,0.5-0.3,0.8-1,0.8h-10.1
	C-21.2,441.4-21.4,441.1-21.7,440.6z M-40.4,394.4v14c0,0.3,0.3,0.5,0.5,0.5h10.6c2.3,0,4.1-0.8,5.6-2c1.5-1.3,2.3-3,2.3-5.3
	s-0.8-4.1-2.3-5.3c-1.5-1.3-3.3-2-5.6-2h-10.6C-40.2,394.2-40.4,394.2-40.4,394.4z M7.2,439.6c-3.3-1.8-5.8-4.1-7.6-7.4
	c-1.8-3-2.8-6.9-2.8-10.9v-17.5c0-4.1,1-7.6,2.8-10.7c1.8-3,4.3-5.6,7.6-7.1c3.3-1.8,6.8-2.5,11.1-2.5c4.3,0,8.1,0.8,11.4,2.5
	c3.3,1.8,5.8,4.1,7.6,7.1c1.8,3,2.8,6.6,2.8,10.7v17.5c0,4.1-1,7.6-2.8,10.9c-1.8,3-4.3,5.6-7.6,7.4c-3.3,1.8-7.1,2.5-11.4,2.5
	C14.3,442.2,10.5,441.4,7.2,439.6z M25.7,429.5c1.8-2,2.8-4.3,2.8-7.6v-18c0-3-1-5.6-2.8-7.6c-1.8-2-4.3-2.8-7.3-2.8
	c-3,0-5.3,1-7.1,2.8c-1.8,2-2.8,4.6-2.8,7.6v18c0,3,1,5.6,2.8,7.6c1.8,2,4.3,2.8,7.1,2.8C21.4,432.3,23.9,431.5,25.7,429.5z
	 M56.8,439.9c-3.3-1.3-5.8-3.3-7.6-5.8c-1.8-2.5-2.5-5.6-2.5-9.1v-1.8c0-0.3,0-0.5,0.3-0.8c0.3-0.3,0.5-0.3,0.8-0.3h9.4
	c0.3,0,0.5,0,0.8,0.3c0.3,0.3,0.3,0.5,0.3,0.8v1.3c0,2.3,1,4.1,3,5.6c2,1.5,4.8,2.3,8.1,2.3c2.8,0,5.1-0.5,6.3-1.8
	c1.5-1.3,2-2.8,2-4.6c0-1.3-0.5-2.3-1.3-3.3c-0.8-1-2-1.8-3.5-2.3c-1.5-0.8-3.8-1.5-7.1-2.8c-3.5-1.3-6.8-2.5-9.1-3.8
	c-2.5-1.3-4.6-3-6.3-5.3c-1.8-2.3-2.5-5.1-2.5-8.4c0-3.3,0.8-6.1,2.5-8.6c1.8-2.5,4.1-4.3,7.1-5.6c3-1.3,6.3-2,10.4-2
	s7.8,0.8,11.1,2.3c3.3,1.5,5.8,3.6,7.6,6.1c1.8,2.5,2.8,5.6,2.8,9.1v1.3c0,0.3,0,0.5-0.3,0.8s-0.5,0.3-0.8,0.3h-9.4
	c-0.3,0-0.5,0-0.8-0.3c-0.3-0.3-0.3-0.5-0.3-0.8v-0.8c0-2.3-1-4.3-2.8-5.8c-1.8-1.5-4.6-2.3-7.6-2.3c-2.5,0-4.6,0.5-6.1,1.5
	c-1.5,1-2.3,2.5-2.3,4.6c0,1.3,0.5,2.5,1.3,3.6s2,1.8,3.8,2.5c1.8,0.8,4.3,1.8,7.6,3c3.8,1.5,6.8,2.5,9.1,3.8c2.3,1,4.3,2.8,5.8,4.8
	c1.8,2,2.5,4.8,2.5,8.4c0,5.1-1.8,9.1-5.6,12.2c-3.8,3-8.9,4.6-15.2,4.6C63.9,441.9,60.1,441.1,56.8,439.9z M95,448.3l2.8-19
	c0-0.5,0.5-1,1-1h8.4c0.8,0,1,0.3,0.8,1l-5.1,19c-0.3,0.5-0.5,0.8-1,0.8h-5.8C95.3,449.3,95,449,95,448.3z M174.5,384.5
	c0.3,0.3,0.3,0.5,0.3,0.8v8.1c0,0.3,0,0.5-0.3,0.8c-0.3,0.3-0.5,0.3-0.8,0.3h-14.7c-0.3,0-0.5,0.3-0.5,0.5v45.7c0,0.3,0,0.5-0.3,0.8
	c-0.3,0.3-0.5,0.3-0.8,0.3H148c-0.3,0-0.5,0-0.8-0.3c-0.3-0.3-0.3-0.5-0.3-0.8v-45.7c0-0.3-0.3-0.5-0.5-0.5h-14.2
	c-0.3,0-0.5,0-0.8-0.3c-0.3-0.3-0.3-0.5-0.3-0.8v-8.1c0-0.3,0-0.5,0.3-0.8c0.3-0.3,0.5-0.3,0.8-0.3h41
	C174,384.3,174.3,384.3,174.5,384.5z M221.4,393.7c-0.3,0.3-0.5,0.3-0.8,0.3H194c-0.3,0-0.5,0.3-0.5,0.5v12.7c0,0.3,0.3,0.5,0.5,0.5
	h17.5c0.3,0,0.5,0,0.8,0.3c0.3,0.3,0.3,0.5,0.3,0.8v7.9c0,0.3,0,0.5-0.3,0.8c-0.3,0.3-0.5,0.3-0.8,0.3H194c-0.3,0-0.5,0.3-0.5,0.5
	v13.2c0,0.3,0.3,0.5,0.5,0.5h26.6c0.3,0,0.5,0,0.8,0.3c0.3,0.3,0.3,0.5,0.3,0.8v7.9c0,0.3,0,0.5-0.3,0.8c-0.3,0.3-0.5,0.3-0.8,0.3
	h-37.7c-0.3,0-0.5,0-0.8-0.3c-0.3-0.3-0.3-0.5-0.3-0.8v-55.1c0-0.3,0-0.5,0.3-0.8c0.3-0.3,0.5-0.3,0.8-0.3h37.7c0.3,0,0.5,0,0.8,0.3
	c0.3,0.3,0.3,0.5,0.3,0.8v7.9C221.6,393.4,221.6,393.7,221.4,393.7z M262.6,384.5c0.3-0.3,0.5-0.3,0.8-0.3h9.6c0.3,0,0.5,0,0.8,0.3
	c0.3,0.3,0.3,0.5,0.3,0.8v55.1c0,0.3,0,0.5-0.3,0.8c-0.3,0.3-0.5,0.3-0.8,0.3h-9.1c-0.5,0-1-0.3-1-0.8l-21-35c0-0.3-0.3-0.3-0.3-0.3
	l-0.3,0.3l0.3,34.5c0,0.3,0,0.5-0.3,0.8c-0.3,0.3-0.5,0.3-0.8,0.3h-10.1c-0.3,0-0.5,0-0.8-0.3c-0.3-0.3-0.3-0.5-0.3-0.8V385
	c0-0.3,0-0.5,0.3-0.8c0.3-0.3,0.5-0.3,0.8-0.3h9.1c0.5,0,1,0.3,1.3,0.8l21,34.8c0,0.3,0.3,0.3,0.3,0.3l0.3-0.3v-34.3
	C262.4,384.8,262.4,384.5,262.6,384.5z M283.7,441.1c-0.3-0.3-0.3-0.5-0.3-0.8v-55.1c0-0.3,0-0.5,0.3-0.8c0.3-0.3,0.5-0.3,0.8-0.3
	h20.3c4.1,0,7.6,0.8,10.6,2.3s5.3,3.6,7.1,6.1s2.5,5.6,2.5,9.1v22.6c0,3.6-0.8,6.3-2.5,9.1c-1.8,2.5-4.1,4.6-7.1,6.1
	s-6.6,2.3-10.6,2.3h-20.3C283.9,441.4,283.7,441.1,283.7,441.1z M295.1,431.5h9.9c2.5,0,4.6-0.8,6.1-2.5c1.5-1.8,2.3-4.1,2.3-6.9
	v-18.8c0-2.8-0.8-5.1-2.3-6.9c-1.5-1.8-3.5-2.5-6.3-2.5h-9.9c-0.3,0-0.5,0.3-0.5,0.5V431C294.8,431.2,294.8,431.5,295.1,431.5z
	 M372.8,393.7c-0.3,0.3-0.5,0.3-0.8,0.3h-26.6c-0.3,0-0.5,0.3-0.5,0.5v12.7c0,0.3,0.3,0.5,0.5,0.5h17.5c0.3,0,0.5,0,0.8,0.3
	c0.3,0.3,0.3,0.5,0.3,0.8v7.9c0,0.3,0,0.5-0.3,0.8c-0.3,0.3-0.5,0.3-0.8,0.3h-17.5c-0.3,0-0.5,0.3-0.5,0.5v13.2
	c0,0.3,0.3,0.5,0.5,0.5h26.8c0.3,0,0.5,0,0.8,0.3c0.3,0.3,0.3,0.5,0.3,0.8v7.9c0,0.3,0,0.5-0.3,0.8c-0.3,0.3-0.5,0.3-0.8,0.3h-37.7
	c-0.3,0-0.5,0-0.8-0.3c-0.3-0.3-0.3-0.5-0.3-0.8v-55.1c0-0.3,0-0.5,0.3-0.8c0.3-0.3,0.5-0.3,0.8-0.3h37.7c0.3,0,0.5,0,0.8,0.3
	c0.3,0.3,0.3,0.5,0.3,0.8v7.9C373,393.4,373,393.7,372.8,393.7z M414,384.5c0.3-0.3,0.5-0.3,0.8-0.3h9.6c0.3,0,0.5,0,0.8,0.3
	c0.3,0.3,0.3,0.5,0.3,0.8v55.1c0,0.3,0,0.5-0.3,0.8c-0.3,0.3-0.5,0.3-0.8,0.3h-9.1c-0.5,0-1-0.3-1-0.8l-21-35c0-0.3-0.3-0.3-0.3-0.3
	l-0.3,0.3l-0.3,34.8c0,0.3,0,0.5-0.3,0.8c-0.3,0.3-0.5,0.3-0.8,0.3h-9.6c-0.3,0-0.5,0-0.8-0.3c-0.3-0.3-0.3-0.5-0.3-0.8v-55.1
	c0-0.3,0-0.5,0.3-0.8c0.3-0.3,0.5-0.3,0.8-0.3h9.1c0.5,0,1,0.3,1.3,0.8l21,34.8c0,0.3,0.3,0.3,0.3,0.3l0.3-0.3v-34.3
	C413.8,384.8,413.8,384.5,414,384.5z M444.2,439.4c-3.3-1.8-5.6-4.1-7.3-6.9c-1.8-3-2.5-6.3-2.5-10.4v-18.8c0-3.8,0.8-7.4,2.5-10.4
	s4.3-5.3,7.3-6.9c3.3-1.5,6.8-2.5,11.1-2.5c4.3,0,7.8,0.8,11.1,2.3c3.3,1.5,5.6,3.8,7.3,6.6c1.8,2.8,2.5,6.1,2.5,9.9
	c0,0.5-0.3,0.8-1,1l-9.6,0.5h-0.3c-0.5,0-0.8-0.3-0.8-1c0-2.8-0.8-5.1-2.5-6.9c-1.8-1.8-4.1-2.5-6.8-2.5c-3,0-5.3,0.8-7.1,2.5
	c-1.8,1.8-2.5,4.1-2.5,6.9v19.6c0,2.8,0.8,5.1,2.5,6.9c1.8,1.8,4.1,2.5,7.1,2.5c2.8,0,5.3-0.8,6.8-2.5c1.8-1.8,2.5-4.1,2.5-6.9
	c0-0.5,0.3-1,1-1l9.6,0.5c0.3,0,0.5,0,0.8,0.3c0.3,0.3,0.3,0.3,0.3,0.5c0,3.8-0.8,7.1-2.5,9.9c-1.8,2.8-4.3,5.1-7.3,6.6
	c-3.3,1.5-6.8,2.3-11.1,2.3C451,441.9,447.2,441.1,444.2,439.4z M484.9,441.1c-0.3-0.3-0.3-0.5-0.3-0.8v-55.1c0-0.3,0-0.5,0.3-0.8
	c0.3-0.3,0.5-0.3,0.8-0.3h9.6c0.3,0,0.5,0,0.8,0.3c0.3,0.3,0.3,0.5,0.3,0.8v55.1c0,0.3,0,0.5-0.3,0.8c-0.3,0.3-0.5,0.3-0.8,0.3h-9.6
	C485.4,441.4,485.2,441.1,484.9,441.1z M541.4,440.4l-2.5-8.1c0-0.3-0.3-0.3-0.5-0.3h-20c-0.3,0-0.3,0-0.5,0.3l-2.3,8.1
	c-0.3,0.5-0.5,0.8-1,0.8h-10.4c-0.3,0-0.5,0-0.8-0.3c-0.3-0.3-0.3-0.5,0-0.8l17.5-55.1c0.3-0.5,0.5-0.8,1-0.8h12.7
	c0.5,0,1,0.3,1,0.8l17.5,55.1c0,0,0,0.3,0,0.5c0,0.5-0.3,0.8-1,0.8h-10.4C541.9,441.4,541.4,441.1,541.4,440.4z M521.1,423.4h14.4
	c0.3,0,0.5-0.3,0.3-0.5l-7.3-24.1c0-0.3-0.3-0.3-0.3-0.3s-0.3,0-0.3,0.3l-7.1,24.1C520.9,423.1,520.9,423.4,521.1,423.4z
	 M565.2,439.9c-3.3-1.3-5.8-3.3-7.6-5.8c-1.8-2.5-2.5-5.6-2.5-9.1v-1.8c0-0.3,0-0.5,0.3-0.8s0.5-0.3,0.8-0.3h9.4
	c0.3,0,0.5,0,0.8,0.3c0.3,0.3,0.3,0.5,0.3,0.8v1.3c0,2.3,1,4.1,3,5.6c2,1.5,4.8,2.3,8.1,2.3c2.8,0,5.1-0.5,6.3-1.8
	c1.5-1.3,2-2.8,2-4.6c0-1.3-0.5-2.3-1.3-3.3s-2-1.8-3.5-2.3c-1.5-0.8-3.8-1.5-7.1-2.8c-3.5-1.3-6.8-2.5-9.1-3.8
	c-2.5-1.3-4.6-3-6.3-5.3s-2.5-5.1-2.5-8.4c0-3.3,0.8-6.1,2.5-8.6c1.8-2.5,4.1-4.3,7.1-5.6c3-1.3,6.3-2,10.4-2
	c4.1,0,7.8,0.8,11.1,2.3c3.3,1.5,5.8,3.6,7.6,6.1c1.8,2.5,2.8,5.6,2.8,9.1v1.3c0,0.3,0,0.5-0.3,0.8s-0.5,0.3-0.8,0.3h-9.4
	c-0.3,0-0.5,0-0.8-0.3s-0.3-0.5-0.3-0.8v-0.8c0-2.3-1-4.3-2.8-5.8c-1.8-1.5-4.6-2.3-7.6-2.3c-2.5,0-4.6,0.5-6.1,1.5
	s-2.3,2.5-2.3,4.6c0,1.3,0.5,2.5,1.3,3.6c0.8,1,2,1.8,3.8,2.5c1.8,0.8,4.3,1.8,7.6,3c3.8,1.5,6.8,2.5,9.1,3.8c2.3,1,4.3,2.8,5.8,4.8
	c1.8,2,2.5,4.8,2.5,8.4c0,5.1-1.8,9.1-5.6,12.2c-3.8,3-8.9,4.6-15.2,4.6C572.3,441.9,568.5,441.1,565.2,439.9z M-41.9,528.3
	c-0.3-0.3-0.3-0.5-0.3-0.8v-20.6c0-0.3,0-0.5,0-0.5l-16.7-33.8c0-0.3-0.3-0.3-0.3-0.5c0-0.5,0.3-0.8,1-0.8h10.4c0.5,0,1,0.3,1,0.8
	l10.1,21.8c0.3,0.3,0.3,0.3,0.5,0l10.1-21.8c0.3-0.5,0.5-0.8,1-0.8h10.4c0.5,0,0.8,0,0.8,0.3c0.3,0.3,0,0.5,0,0.8l-17,33.8
	c0,0,0,0.3,0,0.5v20.6c0,0.3,0,0.5-0.3,0.8c-0.3,0.3-0.5,0.3-0.8,0.3h-9.4C-41.7,528.5-41.9,528.5-41.9,528.3z M39.8,528l-10.1-22.6
	c0-0.3-0.3-0.3-0.5-0.3h-7.6c-0.3,0-0.5,0.3-0.5,0.5V528c0,0.3,0,0.5-0.3,0.8c-0.3,0.3-0.5,0.3-0.8,0.3h-9.6c-0.3,0-0.5,0-0.8-0.3
	c-0.3-0.3-0.3-0.5-0.3-0.8v-55.1c0-0.3,0-0.5,0.3-0.8s0.5-0.3,0.8-0.3h23.3c3.5,0,6.6,0.8,9.1,2c2.5,1.5,4.6,3.6,6.1,6.1
	c1.5,2.5,2.3,5.6,2.3,9.1c0,3.8-1,6.9-2.8,9.4c-1.8,2.5-4.3,4.6-7.8,5.6c-0.3,0-0.3,0.3-0.3,0.5l11.1,23.1c0,0.3,0.3,0.5,0.3,0.5
	c0,0.5-0.3,0.8-1,0.8H40.6C40.6,528.5,40.1,528.3,39.8,528z M21.4,481.8v14c0,0.3,0.3,0.5,0.5,0.5h10.6c2.3,0,4.1-0.8,5.6-2
	c1.5-1.3,2.3-3,2.3-5.3s-0.8-4.1-2.3-5.3c-1.5-1.3-3.3-2-5.6-2H21.9C21.4,481.3,21.4,481.5,21.4,481.8z M60.1,528.3
	c-0.3-0.3-0.3-0.5-0.3-0.8v-55.1c0-0.3,0-0.5,0.3-0.8c0.3-0.3,0.5-0.3,0.8-0.3h9.6c0.3,0,0.5,0,0.8,0.3c0.3,0.3,0.3,0.5,0.3,0.8
	v55.1c0,0.3,0,0.5-0.3,0.8c-0.3,0.3-0.5,0.3-0.8,0.3h-9.6C60.4,528.5,60.1,528.5,60.1,528.3z M120.4,481c-0.3,0.3-0.5,0.3-0.8,0.3
	H93c-0.3,0-0.5,0.3-0.5,0.5v12.7c0,0.3,0.3,0.5,0.5,0.5h17.5c0.3,0,0.5,0,0.8,0.3c0.3,0.3,0.3,0.5,0.3,0.8v7.9c0,0.3,0,0.5-0.3,0.8
	c-0.3,0.3-0.5,0.3-0.8,0.3H93c-0.3,0-0.5,0.3-0.5,0.5v13.2c0,0.3,0.3,0.5,0.5,0.5h26.6c0.3,0,0.5,0,0.8,0.3c0.3,0.3,0.3,0.5,0.3,0.8
	v7.9c0,0.3,0,0.5-0.3,0.8c-0.3,0.3-0.5,0.3-0.8,0.3H81.9c-0.3,0-0.5,0-0.8-0.3c-0.3-0.3-0.3-0.5-0.3-0.8v-55.1c0-0.3,0-0.5,0.3-0.8
	c0.3-0.3,0.5-0.3,0.8-0.3h37.7c0.3,0,0.5,0,0.8,0.3c0.3,0.3,0.3,0.5,0.3,0.8v7.9C120.6,480.8,120.6,480.8,120.4,481z M136.8,527.2
	c-3.3-1.3-5.8-3.3-7.6-5.8c-1.8-2.5-2.5-5.6-2.5-9.1v-1.8c0-0.3,0-0.5,0.3-0.8c0.3-0.3,0.5-0.3,0.8-0.3h9.4c0.3,0,0.5,0,0.8,0.3
	c0.3,0.3,0.3,0.5,0.3,0.8v1.3c0,2.3,1,4.1,3,5.6c2,1.5,4.8,2.3,8.1,2.3c2.8,0,5.1-0.5,6.3-1.8c1.5-1.3,2-2.8,2-4.6
	c0-1.3-0.5-2.3-1.3-3.3c-0.8-1-2-1.8-3.5-2.3c-1.5-0.8-3.8-1.5-7.1-2.8c-3.5-1.3-6.8-2.5-9.1-3.8c-2.5-1.3-4.6-3-6.3-5.3
	c-1.8-2.3-2.5-5.1-2.5-8.4c0-3.3,0.8-6.1,2.5-8.6c1.8-2.5,4.1-4.3,7.1-5.6c3-1.3,6.3-2,10.4-2c4.1,0,7.8,0.8,11.1,2.3
	c3.3,1.5,5.8,3.6,7.6,6.1c1.8,2.5,2.8,5.6,2.8,9.1v1.3c0,0.3,0,0.5-0.3,0.8c-0.3,0.3-0.5,0.3-0.8,0.3h-9.4c-0.3,0-0.5,0-0.8-0.3
	c-0.3-0.3-0.3-0.5-0.3-0.8v-0.8c0-2.3-1-4.3-2.8-5.8c-1.8-1.5-4.6-2.3-7.6-2.3c-2.5,0-4.6,0.5-6.1,1.5c-1.5,1-2.3,2.5-2.3,4.6
	c0,1.3,0.5,2.5,1.3,3.6c0.8,1,2,1.8,3.8,2.5c1.8,0.8,4.3,1.8,7.6,3c3.8,1.5,6.8,2.5,9.1,3.8c2.3,1,4.3,2.8,5.8,4.8
	c1.8,2,2.5,4.8,2.5,8.4c0,5.1-1.8,9.1-5.6,12.2c-3.8,3-8.9,4.6-15.2,4.6C143.9,529.3,140.1,528.5,136.8,527.2z M186.2,526.7
	c-3.3-1.8-5.6-4.1-7.3-7.1c-1.8-3-2.5-6.6-2.5-10.4v-18.3c0-4.1,0.8-7.4,2.5-10.4c1.8-3,4.3-5.3,7.3-7.1c3.3-1.8,6.8-2.5,11.1-2.5
	c4.1,0,7.8,0.8,10.9,2.5c3.3,1.5,5.6,3.8,7.3,6.6c1.8,2.8,2.5,5.8,2.5,9.4v0.5c0,0.3,0,0.5-0.3,0.8c-0.3,0.3-0.5,0.3-0.8,0.3h-9.4
	c-0.3,0-0.5,0-0.8-0.3c-0.3-0.3-0.3-0.5-0.3-0.8v-0.3c0-2.5-0.8-4.6-2.5-6.3c-1.8-1.8-4.1-2.5-6.8-2.5c-3,0-5.3,1-7.1,2.8
	c-1.8,1.8-2.5,4.3-2.5,7.1v19c0,3,1,5.3,2.8,7.1c2,1.8,4.3,2.8,7.3,2.8c2.8,0,5.1-0.8,6.8-2.3c1.8-1.5,2.5-3.6,2.5-6.3v-3.6
	c0-0.3-0.3-0.5-0.5-0.5h-9.1c-0.3,0-0.5,0-0.8-0.3c-0.3-0.3-0.3-0.5-0.3-0.8v-7.6c0-0.3,0-0.5,0.3-0.8c0.3-0.3,0.5-0.3,0.8-0.3h19.7
	c0.3,0,0.5,0,0.8,0.3c0.3,0.3,0.3,0.5,0.3,0.8V509c0,4.1-0.8,7.6-2.5,10.7c-1.8,3-4.3,5.3-7.3,6.9c-3.3,1.5-6.8,2.3-11.1,2.3
	C193,529.3,189.2,528.5,186.2,526.7z M236.1,527c-3.3-1.8-5.8-4.1-7.6-7.4c-1.8-3-2.8-6.9-2.8-10.9v-17.5c0-4.1,1-7.6,2.8-10.7
	c1.8-3,4.3-5.6,7.6-7.1c3.3-1.8,6.8-2.5,11.1-2.5c4.3,0,8.1,0.8,11.4,2.5s5.8,4.1,7.6,7.1c1.8,3,2.8,6.6,2.8,10.7v17.5
	c0,4.1-1,7.6-2.8,10.9c-1.8,3-4.3,5.6-7.6,7.4c-3.3,1.8-7.1,2.5-11.4,2.5C242.9,529.5,239.4,528.8,236.1,527z M254.5,516.8
	c1.8-2,2.8-4.3,2.8-7.6v-18c0-3-1-5.6-2.8-7.6c-1.8-2-4.3-2.8-7.3-2.8c-3,0-5.3,1-7.1,2.8c-1.8,2-2.8,4.6-2.8,7.6v18
	c0,3,1,5.6,2.8,7.6c1.8,2,4.3,2.8,7.1,2.8C250.2,519.6,252.5,518.6,254.5,516.8z M285.7,527.2c-3.3-1.3-5.8-3.3-7.6-5.8
	c-1.8-2.5-2.5-5.6-2.5-9.1v-1.8c0-0.3,0-0.5,0.3-0.8c0.3-0.3,0.5-0.3,0.8-0.3h9.4c0.3,0,0.5,0,0.8,0.3s0.3,0.5,0.3,0.8v1.3
	c0,2.3,1,4.1,3,5.6c2,1.5,4.8,2.3,8.1,2.3c2.8,0,5.1-0.5,6.3-1.8c1.5-1.3,2-2.8,2-4.6c0-1.3-0.5-2.3-1.3-3.3c-0.8-1-2-1.8-3.5-2.3
	c-1.5-0.8-3.8-1.5-7.1-2.8c-3.5-1.3-6.8-2.5-9.1-3.8c-2.5-1.3-4.6-3-6.3-5.3c-1.8-2.3-2.5-5.1-2.5-8.4c0-3.3,0.8-6.1,2.5-8.6
	c1.8-2.5,4.1-4.3,7.1-5.6s6.3-2,10.4-2c4.1,0,7.8,0.8,11.1,2.3s5.8,3.6,7.6,6.1c1.8,2.5,2.8,5.6,2.8,9.1v1.3c0,0.3,0,0.5-0.3,0.8
	c-0.3,0.3-0.5,0.3-0.8,0.3h-9.4c-0.3,0-0.5,0-0.8-0.3c-0.3-0.3-0.3-0.5-0.3-0.8v-0.8c0-2.3-1-4.3-2.8-5.8c-1.8-1.5-4.6-2.3-7.6-2.3
	c-2.5,0-4.6,0.5-6.1,1.5c-1.5,1-2.3,2.5-2.3,4.6c0,1.3,0.5,2.5,1.3,3.6c0.8,1,2,1.8,3.8,2.5c1.8,0.8,4.3,1.8,7.6,3
	c3.8,1.5,6.8,2.5,9.1,3.8c2.3,1,4.3,2.8,5.8,4.8c1.8,2,2.5,4.8,2.5,8.4c0,5.1-1.8,9.1-5.6,12.2s-8.9,4.6-15.2,4.6
	C292.8,529.3,289,528.5,285.7,527.2z"/>
</svg>
