<?xml version="1.0" encoding="utf-8"?>
<!DOCTYPE svg PUBLIC "-//W3C//DTD SVG 1.1//EN" "http://www.w3.org/Graphics/SVG/1.1/DTD/svg11.dtd">
<svg version="1.1"
	 id="svg2985" xmlns:dc="http://purl.org/dc/elements/1.1/" xmlns:cc="http://creativecommons.org/ns#" xmlns:rdf="http://www.w3.org/1999/02/22-rdf-syntax-ns#"
	 xmlns="http://www.w3.org/2000/svg" xmlns:xlink="http://www.w3.org/1999/xlink" x="0px" y="0px"
	 viewBox="-46.166 84.6162 1446.968 725.2566" enable-background="new -46.166 84.6162 1446.968 725.2566" xml:space="preserve">
<path id="path2995" d="M656.76,736.17c-0.825-0.1964-6.225-0.7789-12-1.2948c-12.513-1.1176-23.142-4.7033-27.947-9.4272
	c-4.5858-4.509-10.053-11.65-10.053-13.13c0-0.6885-0.6818-2.6184-1.515-4.2886c-5.6793-11.384-8.8468-26.522-10.31-49.27
	l-0.6752-10.5l-3-0.3467c-10.142,1.4393-17.185,1.8316-25.755,0.3536c-2.3346-0.3669-10.77-2.1954-18.745-4.0632
	c-28.032-6.5783-58.585-10.477-87-6.964l-5.5,0.7095l-7-6.8854c-3.85-3.787-10.825-10.357-15.5-14.601l-8.5-7.7153l24.5,0.7561
	c44.024,1.3586,111.59,0.79,128.59-1.082c16.989-1.8712,27.93-4.3666,35.064-7.9976c5.7799-2.9418,8.5885-5.7794,11.051-11.164
	c1.0059-2.2,2.589-5.1283,3.5181-6.5073c0.9291-1.379,4.4341-9.254,7.7889-17.5s9.6675-22.254,14.028-31.128
	c7.5158-15.296,8.0984-16.165,11.194-16.697c20.285-3.4852,41.995-3.337,52.588,0.3589c17.133,5.9779,31.454,21.233,40.15,42.769
	c4.3303,10.724,11.858,35.206,12.67,41.205c1.2255,9.053,1.4734,32.114,0.4569,42.5c-2.2626,23.119-9.1097,48.513-16.835,62.438
	c-6.9855,12.591-20.049,23.84-30.763,26.491c-10.501,2.5976-53.259,4.7052-60.5,2.9821L656.76,736.17z M717.563,709.17
	c12.928-6.4422,24.724-27.196,30.22-53.167c2.6601-12.571,3.7007-38.288,2.0533-50.744c-3.5849-27.106-13.569-47.095-26.539-53.134
	c-9.5503-4.4472-17.631-2.3098-27.112,7.1712c-15.023,15.023-24.432,45.494-24.422,79.092c0.005,16.283,1.9009,29.301,6.0949,41.844
	c3.6092,10.794,6.7109,16.332,12.831,22.909c8.2477,8.8636,17.168,10.865,26.873,6.0289L717.563,709.17z M195.933,704.6849
	c-9.9036-1.2852-21.354-4.4819-27.912-7.7922c-7.6476-3.8605-16.261-13.19-19.35-20.96c-10.681-19.251-12.368-35.794-14.293-56.526
	c0.7458-7.9913-3.7812-47.636,5.0109-47.647c3.5048,0,4.5775,0.4865,6.249,2.834c3.0772,4.3215,12.939,9.0057,25.798,12.253
	c24.245,6.123,67.003,10.833,151.42,16.679l10.601,0.7341l10.554,11.5c5.9517,7.4248,9.007,7.4388,8.29,14.075
	c0.3509,0.5678-2.1627,0.9431-6.229,0.9299c-8.674,0.4818-32.786-2.1316-36.114,3.2488c-10.69,8.4388-7.3744-0.1166-12.662,9.5576
	c-7.1657,16.032-11.169,33.38-24.047,45.06c-5.5664,4.8874-24.835,13.794-33.701,15.578c-8.3486,1.6797-32.326,1.9417-43.616,0.4766
	L195.933,704.6849z M1079.303,665.0849c-7.7318-0.9922-16.963-3.583-20.311-5.7004c-7.7484-4.9008-13.958-12.402-15.306-18.49
	c-0.4415-1.9937-1.903-6.9999-3.248-11.125c-5.0376-15.45-7.3929-30.324-5.8593-37c0.7633-3.3226,1.2075-3.6311,8.7642-6.086
	c14.366-4.6671,18.5861-7.5573,25.3459-17.36c7.5338-10.924,14.146-25.112,22.63-48.554c15.77-43.577,22.104-52.424,39.431-55.076
	c9.3879-1.4366,16.636-0.8549,21.644,1.7373c6.8398,3.5403,10.517,13.719,13.85,38.338c5.0969,37.647,4.5614,76.886-1.3719,100.55
	c-1.1099,4.4262-2.4783,11.293-3.0409,15.26c-3.2281,19.731-12.42,31.547-28.476,37.709
	c-13.361,5.0289-21.8669,6.4813-37.052,6.3264c-7.7-0.0786-15.35-0.316-17-0.5278V665.0849z M1135.746,638.7989
	c23.208-11.84,32.001-82.369,15.37-123.3c-5.5221-13.59-14.39-22.733-22.049-22.733c-12.54,0-23.6219,17.455-28.887,45.5
	c-1.4084,7.5024-1.8774,14.621-1.8774,28.5c0,20.848,1.6731,32.542,6.7242,47c7.7048,22.054,18.812,31.103,30.719,25.029
	L1135.746,638.7989z M428.806,638.123c-22.135-2.7339-38.805-1.1779-58.161-3.6495l-13.343-14.594
	c-7.3389-8.0269-13.249-14.688-13.134-14.803c0.1149-0.1149,15.493,0.5114,34.174,1.3917l33.965,1.6006l6.5,6.1695
	c3.575,3.3932,10.898,10.141,16.273,14.995s9.5899,9.0082,9.3664,9.2317c-0.9901,0.9901-11.553,0.7597-15.639-0.3412
	L428.806,638.123z M770.3459,617.952c-0.3402-1.5491,0.539-9.0846,1.954-16.746c5.5522-30.062,5.5533-51.349,0-75.865
	c-1.3606-6.0108-2.3128-11.09-2.1159-11.287c0.7774-0.7775,45.657-4.5794,46.313-3.9234c1.044,1.044-1.35,25.052-4.1967,42.086
	c-2.9044,17.38-3.0055,19.67-1.0364,23.478c2.1948,4.2442,7.8745,6.0759,18.809,6.0656c10.142-0.01,18.652-0.9344,63.23-6.8719
	c16.5-2.1977,36.525-4.7157,44.5-5.5957c15.734-1.736,123.1-15.378,126.71-16.101c4.6989-0.939,8.349-9.9497,18.322-45.229
	c3.4166-12.087,6.4938-22.42,6.8383-22.962c0.3445-0.5426,2.5377-1.306,4.8738-1.6964l4.2474-0.7099l-3.0304,6.7543
	c-1.6667,3.7149-6.5597,16.474-10.873,28.354c-9.2333,25.43-12.9969,33.658-20.899,45.692
	c-5.1024,7.7705-6.6184,9.3224-11.808,12.089c-8.8687,4.7269-21.049,7.8096-52.884,13.384c-9.35,1.6372-19.25,3.4111-22,3.942
	c-2.75,0.5309-9.05,0.9257-14,0.8773s-11.025,0.3763-13.5,0.9438s-8.775,1.3343-14,1.7041s-13.775,1.5328-19,2.5845
	s-15.125,2.1608-22,2.4648c-6.9412,0.3069-14.501,1.2221-17,2.058c-2.475,0.8279-8.775,1.8622-14,2.2985
	c-30.597,2.5544-37.896,3.3645-41.5,4.6058c-4.7663,1.6415-13.974,3.1629-31.777,5.2505c-4.2776,0.5016-8.5526,1.5857-9.5,2.4091
	s-3.5994,1.7816-5.8933,2.1293c-3.9635,0.6007-4.2015,0.4922-4.7894-2.1845L770.3459,617.952z M475.8059,603.102
	c-41.792-0.9929-110.68-4.0674-154-6.8734c-97.911-6.3417-146.5-13.805-164.35-21.638c-2.1948-0.9636-3.3409-1.579-3.9514-2.1239
	c-10.535-4.6413,91.023,3.7633,201.3,8.9253c122.2,5.7204,211.72,9.4822,229.23,9.6332c27.22,0.2347,28.616,0.3369,26.504,1.938
	c-11.123,8.4307-58.036,11.961-134.74,10.139L475.8059,603.102z M762.9659,580.565c-11.303-39.115-25.515-58.359-49.921-67.598
	c-6.1638-2.3332-8.1129-2.558-22.742-2.6228c-8.8-0.039-19.038,0.2791-22.75,0.707c-3.7125,0.4278-6.75,0.395-6.75-0.0729
	c0-1.5595,11.611-16.632,16.973-22.032c6.6915-6.7394,13.871-11.511,21.527-14.307c5.0017-1.8266,8.2462-2.2057,19.5-2.2788
	c15.645-0.1015,19.906,1.2223,26.801,8.3271c10.782,11.11,20.582,40.059,23.254,68.691c1.0839,11.616-0.049,35.502-1.9251,40.573
	c-0.4967,1.3426-1.6671-1.4266-3.9674-9.3868L762.9659,580.565z M568.8059,582.0978c-4.675-0.2062-100.51-4.6386-212.98-9.8496
	c-125.09-5.7961-213.45-9.4746-227.6-9.4746c-25.683,0-24.858,0.2094-27.718-7.0366c-1.0152-2.5716-1.1325-4.8257-0.4554-8.754
	c1.2354-7.1676,5.6244-10.252,15.474-10.873c3.7246-0.2351,99.472,3.8576,212.77,9.0948s218.38,9.784,233.5,10.104
	c56.237,1.1897,62.501,3.3204,57.948,19.714c-1.7546,6.3179-4.5473,7.1357-24.948,7.3053c-9.625,0.08-21.325-0.0233-26-0.2295
	L568.8059,582.0978z M818.9059,575.5862c-4.5694-2.497-4.6529-3.5325-1.7314-21.472c3.0367-18.647,4.5885-32.126,4.6154-40.09
	c0.01-2.8875,0.219-5.25,0.465-5.25c1.0553,0,149.55-13.992,154.3-14.539l5.25-0.6045v4.5376c0,9.2254-5.6967,42.625-9.9891,58.566
	c-1.1261,4.182,0.01,3.8398-18.511,5.5877c-9.318,0.8795-51.259,6.1478-80,10.049c-29.699,4.0313-50.644,5.2696-54.402,3.2164
	L818.9059,575.5862z M1177.4059,561.5232c-0.2712-1.7875-0.7209-10.225-0.9994-18.75c-0.7661-23.464-4.8315-55.808-8.0492-64.041
	c-0.5236-1.3397,4.0907-1.9117,35.358-4.3826c19.778-1.563,36.691-2.5613,37.585-2.2184c-1.019,2.8963-2.8666,12.265-4.6189,16.427
	c-2.9965,6.9712-9.6584,26.572-11.418,33.593c-1.9054,7.6046-3.453,11.616-4.3729,11.337
	c-6.7081,5.5994-36.192,30.534-42.374,31.286c-0.3394,0-0.8387-1.4625-1.1101-3.25L1177.4059,561.5232z M624.7959,556.2558
	c-4.0675-4.1966-11.995-7.343-20.342-8.0735c-11.422-0.9996-10.347,0.4694-11.09-15.152c-0.3602-7.5662-1.0858-20.802-1.6124-29.413
	c-1.3047-21.335-1.2964-56.133,0.0149-62.843c1.6835-8.6145,5.6032-15.649,10.904-19.57c10.484-7.7537,57.84-19.875,103.14-26.4
	c27.316-3.9344,78.057-9.1726,99.211-10.242l5.7108-0.2887l0.5288,5c1.7237,16.298,4.8242,74.171,4.9277,91.979l0.1219,20.979
	l-23,2.2019c-12.65,1.211-23.739,2.2331-24.642,2.2713c-0.9878,0.0417-1.9142-1.026-2.3259-2.6806
	c-1.2636-5.0784-8.5038-19.494-12.273-24.437c-4.933-6.4685-12.132-11.2-20.949-13.768c-6.5603-1.9108-8.1521-2.0033-18.185-1.0572
	c-20.244,1.909-29.672,6.467-43.656,21.105c-13.185,13.802-26.599,35.827-38.006,62.406c-2.5966,6.05-4.8063,11.106-4.9103,11.235
	c-0.1041,0.1293-1.7102-1.3343-3.5693-3.2524L624.7959,556.2558z M976.8159,558.7875c0-0.5146,1.3869-7.1385,3.0819-14.72
	c3.2365-14.475,6.8961-37.348,6.9271-43.294c0.043-8.1787-4.0862-7.1236,46.307-11.834c44.783-4.1857,50.684-4.6149,50.684-3.6863
	c0,1.2148-11.411,41.029-14.1169,49.255c-3.3914,10.31-5.5924,13.696-9.0443,13.912c-2.6279,0.1646-76.807,10.06-81.089,10.817
	c-1.5125,0.2675-2.75,0.0653-2.75-0.4493L976.8159,558.7875z M570.1759,543.6974c2.1513-2.5567,2.5889-4.0839,2.5889-9.0352
	c0-6.7398-1.6665-10.119-5.7988-11.757c-1.4857-0.5889-10.04-1.5607-19.009-2.1595c-15.234-1.0171-16.518-0.9661-19.498,0.7744
	c-4.2607,2.4884-5.6622,5.5926-5.6798,12.581c-0.0127,5.0388,0.3572,6.1961,2.7353,8.5562l2.75,2.7292l-5.5-0.3394
	c-3.025-0.1867-79.525-3.6897-170-7.7844s-168.18-7.7177-172.68-8.051l-8.184-0.606l1.9303-3.1657
	c1.3605-2.2313,1.9314-5.0059,1.934-9.3999c0.003-5.4761-0.3508-6.6314-2.9117-9.5l-3.2347-2.6274l-14.438-0.965
	c-16.116-1.0772-18.523,0.2072-20.997,4.9916c-2.1306,4.1201-1.8456,14.017,0.489,16.985l1.9037,2.4201l-4.6246-0.5353
	c-4.5762-0.5297-4.6334-0.5823-5.4644-5.0353c-0.4619-2.475-1.5808-6.075-2.4864-8c-0.9056-1.925-1.5424-4.0241-1.415-4.6646
	c0.1274-0.6405-0.2452-3.1155-0.8279-5.5c-0.5827-2.3845-1.2162-5.4604-1.4077-6.8354c-0.1915-1.375-1.7868-10.15-3.545-19.5
	c-2.7266-14.499-3.2549-19.868-3.5913-36.5c-0.2169-10.725-0.4675-21.075-0.5567-23c-0.0892-1.925,0.357-4.85,0.9917-6.5
	c3.7747-9.8134,4.4212-10.628,12.751-16.057c4.5346-2.9556,9.5101-5.6765,11.057-6.0464c1.5467-0.3699,3.2622-1.006,3.8122-1.4134
	c3.1567-2.3388,57.638-17.539,58.765-16.413c0.2136,0.2136,2.596-0.4212-3.9626,1.4807c-11.391,3.3033-29.256,8.8956-35.802,12.057
	c-9.3293,4.5052-16.742,11.825-18.319,18.089c-1.6019,6.3618-1.4989,7.5623,0.7527,8.7673
	c2.1335,1.1418,406.87,14.553,410.64,13.607c1.3531-0.3396,3.417-2.6634,5.2496-5.9105c4.8446-8.5841,14.458-13.808,41.486-22.544
	c34.97-11.303,88.612-24.437,133.11-32.592c10.407-1.9071,19.362-3.9073,19.899-4.445c0.5963-0.5963,6.0876-0.7582,14.078-0.4151
	c11.844,0.5085,13.65,0.3536,18.831-1.6153c10.233-3.8889,13.587-10.075,16.294-30.049c0.8571-6.325,3.5625-22.975,6.012-37
	c7.4687-42.763,9.0367-62.515,5.9174-74.54c-3.4444-13.278-12.402-20.132-28.597-21.878c-2.9462-0.3177-13.457-1.4733-23.357-2.568
	c-50.483-5.5824-140.29-8.6863-242.06-8.3663c-72.634,0.2284-81.051,1.5437-97.227,15.193
	c-8.951,7.5531-19.405,21.891-32.396,44.429c-6.9453,12.05-41.906,77.333-46.802,87.395c-2.1005,4.3168-3.1463,5.3553-6.3638,6.3193
	c-2.1176,0.6345-4.0758,0.928-4.3515,0.6523c-0.4817-0.4818,4.9344-9.4459,8.8438-14.637c1.0354-1.375,4.2727-7.225,7.194-13
	c5.9372-11.737,13.926-26.066,16.874-30.265c1.0678-1.5208,3.6525-6.0916,5.744-10.158c3.2981-6.4117,7.0692-12.971,24.393-42.428
	c13.887-23.613,25.398-36.675,37.753-42.84c21.463-7.3817,51.188-13.627,68.894-14.825c5.775-0.3236,13.2-0.9976,16.5-1.4977
	c116.6-9.731,357.93-21.919,494.46,14.492c1.6324,0.8442,7.631,3.0623,13.33,4.9293c13.671,4.4784,25.141,10.401,30.818,15.915
	c26.976,39.779,50.823,96.598,79.979,136.62l-2.7935,0.7484c-1.5363,0.4117-10.601,0.7626-20.144,0.7799l-17.35,0.0315l-14.756-37
	c-29.2271-73.284-36.53-87.317-50.189-96.438c-9.7479-6.5094-24.467-10.057-47.855-11.533c-13.609-0.8589-124.34,1.23-131.5,2.4806
	c-13.759,2.4032-19.02,5.2258-22.543,12.093c-4.254,8.2939-9.6836,35.369-20.935,104.4c-3.855,23.65-7.5241,44.925-8.1536,47.279
	c-1.1322,4.2325-1.0948,4.343,3.4499,10.195l4.5945,5.9164l-4.2065,0.5346c-2.3135,0.294-10.731,1.017-18.706,1.6065
	c-67.938,5.0222-125.44,14.581-168.06,27.937c-24.671,7.7307-30.606,15.051-32.993,40.693
	c-1.0948,11.763-0.9388,17.465,2.088,76.338c0.5231,10.175,0.9552,19.062,0.9602,19.75c0.007,0.9219-2.7706,1.25-10.58,1.25h-10.589
	l2.5889-3.0767L570.1759,543.6974z M559.5519,505.8824c5.0477-2.5752,12.772-10.993,15.462-16.85
	c1.7966-3.9122,2.1913-6.6271,2.2183-15.259c0.0305-9.7309-0.197-10.985-3.1053-17.123c-3.917-8.2671-8.7196-13.65-15.558-17.438
	c-4.5631-2.5277-6.3507-2.9347-12.804-2.9149c-5.7263,0.0176-8.446,0.5301-11.5,2.1673c-5.8319,3.1263-12,9.9525-15.189,16.809
	c-2.4556,5.28-2.7842,7.14-2.7384,15.5c0.0724,13.223,2.5197,19.271,11.397,28.165c4.9496,4.9586,7.917,7.068,11.591,8.2402
	c6.1051,1.9476,14.983,1.3786,20.226-1.2962L559.5519,505.8824z M164.6019,490.1725c6.1764-3.0778,11.161-9.1226,14.217-17.24
	c1.7802-4.7286,2.0677-7.2872,1.7591-15.653c-0.3184-8.6317-0.7899-10.896-3.4453-16.547
	c-9.5933-20.417-27.536-25.882-40.967-12.477c-17.177,17.144-11.506,52.062,10.096,62.166c6.5567,3.0668,11.829,2.9952,18.34-0.2493
	L164.6019,490.1725z M1230.2019,522.8745c0.2693-0.8768,1.4445-4.7442,2.6115-8.5942c2.5414-8.3842,9.8691-27.645,10.983-28.87
	c0.4353-0.4785,2.7322,0.4335,5.1041,2.0265c6.0623,4.4042,7.3994,12.233,4.9491,17.847c-4,7.7565-11.6479,17.124-19.72,18.515
	c-3.7614,0.5708-4.3444,0.4337-3.9274-0.9239L1230.2019,522.8745z M821.4019,477.0674c-0.3661-13.633-1.735-40.088-3.042-58.788
	c-1.3071-18.7-2.2408-34.15-2.075-34.334c1.0424-1.155,126.66-11.124,144.12-11.438l12.73-0.2284l1.7615,8.5
	c2.2216,10.719,2.2296,10.376-0.1868,7.9601c-3.4407-3.4407-6.8606-4.1611-16.46-3.4674c-11.49,0.8303-12.221,1.0664-14.011,4.5286
	c-2.0903,4.0422-1.8617,6.4339,0.9243,9.673c2.3639,2.7484,2.6451,2.8087,13.75,2.9478c12.638,0.1583,15.105-0.6728,17.268-5.8154
	c1.269-3.0181,1.2718-3.014,1.9753,2.8255c2.5469,21.141,3.7351,38.116,4.277,61.098c0.5793,24.573,0.507,26.25-1.1319,26.25
	c-2.2973,0-149.82,13.813-155.14,14.527l-4.092,0.5486L821.4019,477.0674z M987.4319,459.0294
	c-0.7817-33.991-3.1826-58.412-8.0016-81.389l-1.3924-6.6392l11.105-0.6498c24.122-1.4116,54.699-2.521,87.946-3.1909
	c29.449-0.5934,34.98-0.4837,35.735,0.7086c0.4912,0.7758,0.8999,4.4266,0.9083,8.1128l0.015,6.7022l-2.646-2.4522
	c-2.4381-2.2598-3.4229-2.4522-12.549-2.4522c-13.61,0-16.744,1.8364-16.791,9.8397c-0.028,4.7838,3.3677,6.0905,15.922,6.127
	c10.39,0.0302,11.647-0.1655,13.75-2.141l2.3145-2.1743l-0.027,7.9243c-0.015,4.3584-0.4352,14.585-0.9337,22.726l-0.9064,14.802
	l-5.9955,6.4092c-6.7065,7.1692-11.465,15.12-16.152,26.987c-1.7377,4.4-3.2596,8.1019-3.3822,8.2264
	c-0.2375,0.2414-94.664,9.2736-96.95,9.2736c-1.0891,0-1.4739-5.2274-1.9689-26.75L987.4319,459.0294z M1093.3019,473.5294
	c3.4482-11.278,12.005-25.556,18.597-31.032c3.0981-2.5735,4.2648-4.4106,4.9487-7.7928c0.4922-2.434,1.192-18.746,1.5551-36.248
	l0.6602-31.823l19.593,0.6075c38.399,1.1907,97.662,3.5877,101.84,4.1191c5.9652,0.7588,6.5188,2.2691,5.3759,14.667
	c-3.0594,24.289-0.7949,53.615-5.6174,77.293c-0.2421,0.8914-63.957,6.5683-72.786,6.4851
	c-1.9148-0.018-3.7534-1.1343-5.9053-3.5851c-6.4639-7.362-17.286-9.9252-32.142-7.6124c-9.3086,1.4492-15.152,4.4918-21.813,11.357
	c-5.2897,5.4525-5.931,5.8139-10.317,5.8139c-4.3875,0-4.6345-0.1393-3.9891-2.25V473.5294z M344.4019,412.2295
	c-106.07-3.48-193.14-6.6022-193.47-6.9381c-0.336-0.336,0.0603-1.8066,0.8807-3.2682c5.0006-8.9091,28.37-17,91.736-31.762
	c51.885-12.087,81.661-19.813,96.219-24.967c2.6874-0.9514,9.1322-1.771,16-2.0347c6.325-0.2429,17.8-0.8989,25.5-1.4579
	c24.343-1.767,96.589-2.3548,136.5-1.1105c87.208,2.7188,171.6,8.0105,204.5,12.823l11,1.609l-14.5,2.7299
	c-42.729,8.0446-108.49,25.127-134.85,35.027c-18.103,6.7999-27.973,13.335-32.215,21.331l-2.4313,4.583l-6.0017-0.1186
	c-3.301-0.0652-92.79-2.9659-198.86-6.4459L344.4019,412.2295z M811.4119,372.7805c-2.6957-3.4713-4.6509-7.0394-4.6509-8.4877
	c0-2.3465,0.3197-2.4992,5.25-2.5074c2.8875-0.005,7.725-0.3038,10.75-0.6645c5.0518-0.6023,5.3882-0.5201,4.1276,1.0087
	c-0.7549,0.9154-2.5814,1.6644-4.0589,1.6644c-4.0518,0-6.2978,2.0988-5.9045,5.5178c0.7076,6.1514,10.925,7.4351,11.628,1.461
	c0.1609-1.3664,1.7359-4.1998,3.5-6.2965l3.2074-3.8122l53.5-2.3742c29.425-1.3058,56.936-2.5805,61.135-2.8326l7.6345-0.4584
	l6.3374,5.7391l6.3374,5.7391l-12.972,0.7045c-22.299,1.2111-127.95,9.7193-137.57,11.079c-3.4215,0.4834-3.8286,0.213-8.25-5.4805
	L811.4119,372.7805z M971.2618,360.3885c-3.3-3.034-5.55-5.5404-5-5.5697s29.744-1.3744,64.877-2.989l63.877-2.9357l6.9281,6.2
	l6.9281,6.2l-31.8051,0.6843c-30.276,0.6514-72.96,2.2369-91.305,3.3915l-8.5,0.535L971.2618,360.3885z M1193.7618,364.2168
	c-16.225-0.7116-40.116-1.596-53.0909-1.9652l-23.5909-0.6713l-7.1796-6.1431l-7.1796-6.1431l14.77-0.596
	c8.1237-0.3278,19.078-1.1962,24.342-1.9299c8.8503-1.2333,10.6219-1.1669,23.5,0.8794c23.996,3.4611,45.452,9.8608,66.928,16.748
	l4,1.265l-6.5-0.0748c-3.575-0.0412-19.775-0.6571-36-1.3687L1193.7618,364.2168z M808.3418,355.0441
	c0.2186-0.9625,3.5782-21.1,7.466-44.75c7.1618-43.567,12.86-74.897,15.277-84l1.3277-5l2.2416,14.5
	c1.2328,7.975,4.8282,31.6,7.9897,52.5l5.7483,38l-12.6,0.5984c-13.301,0.6317-15.044,1.1242-19.019,5.3731
	c-2.0716,2.2145-2.5444,3.8575-2.8496,9.9011c-0.2013,3.9853,0.093,8.9068,0.6531,10.937l1.0191,3.6907h-3.8258
	c-3.1283,0-3.7533-0.319-3.4284-1.75L808.3418,355.0441z M875.2248,346.66c-0.055-12.602-4.3956-17.622-16.714-19.33
	c-3.7954-0.526-4.8413-1.0963-5.2208-2.847c-0.2611-1.2041-4.0937-26.225-8.5169-55.603c-4.4232-29.377-8.4886-53.951-9.0342-54.609
	c-1.6266-1.9599,2.5232-6.1564,7.7808-7.8684c9.0848-2.9582,17.942-3.7486,48.374-4.3169l30.637-0.5721l1.1561,5.3896
	c2.8664,13.363,27.07,140.04,27.07,141.68c0,1.7138-1.9891,1.9176-29.75,3.0488c-16.362,0.6667-33.35,1.4783-37.75,1.8036l-8,0.5914
	L875.2248,346.66z M751.2548,347.7952c-6.6-0.9887-17.896-2.7378-25.102-3.8868c-7.2064-1.1491-19.581-2.5274-27.5-3.063
	c-7.9186-0.5356-18.448-1.4207-23.398-1.9669c-38.745-4.2755-153.74-9.0758-217-9.0588c-34.333,0.009-52.378,0.5295-90.406,2.6064
	l-12.406,0.6776l0.6136-3.0677c0.6077-3.0385,31.132-61.483,42.169-80.742c21.348-37.249,34.339-50.448,52.615-53.461
	c10.381-1.711,70.239-3.3232,98.914-2.6642c14.575,0.335,49,1.0505,76.5,1.59c69.617,1.3657,101.37,3.1461,144.5,8.1018
	c32.945,3.7855,34.572,5.2246,34.41,30.433c-0.096,14.922-1.2059,23.874-7.3764,59.5c-2.1434,12.375-4.8534,28.575-6.0223,36
	c-1.1688,7.425-2.8095,14.55-3.6459,15.834C784.5269,350.1406,773.3317,351.1025,751.2548,347.7952L751.2548,347.7952z
	 M964.2748,347.544c-0.2864-1.2375-5.5-28.125-11.586-59.75c-6.0857-31.625-12.299-63.858-13.807-71.629l-2.742-14.129
	l20.559-0.7058c13.22-0.4539,25.021-0.2973,33.059,0.4385c13.051,1.1948,26.924,3.6255,28.306,4.9592
	c0.6356,0.6138,11.322,55.094,25.855,131.81c0.6506,3.4346,0.8879,6.5398,0.5273,6.9005c-0.4764,0.4764-55.03,3.4752-78.419,4.3108
	c-0.6771,0.0242-1.4654-0.9685-1.7518-2.206L964.2748,347.544z M1050.3048,344.6208c-0.6002-1.7735-25.547-133.41-25.547-134.81
	c0-1.7646,3.8756,0.7498,9.8412,6.3849c2.9668,2.8023,7.3618,8.4533,9.7668,12.558c6.1947,10.572,19.031,40.078,34.385,79.037
	c7.2614,18.425,13.415,34.019,13.675,34.654c0.4998,1.2214-4.8585,1.758-28.92,2.8961c-10.116,0.4785-12.845,0.3289-13.201-0.7237
	V344.6208z"/>
</svg>
